<svg viewBox="0 0 913.761 161.056" xml:space="preserve" xmlns="http://www.w3.org/2000/svg">
  <path d="M913.033.728v159.6L.91 129.945V31.11z" fill="none" stroke="#5a5a5a" stroke-width="1.455" stroke-linejoin="round"/>
  <g id="fret-dots" fill="#d9d9d9" stroke="#8e8e8e" stroke-width="1.032" stroke-linejoin="round" transform="translate(-33.437 -230.018)">
    <circle cx="326.126" cy="310.546" r="9.26"/>
    <circle cx="435.161" cy="310.546" r="9.26"/>
    <circle cx="576.597" cy="310.546" r="9.26"/>
    <circle cx="659.289" cy="276.721" r="9.26"/>
    <circle cx="659.289" cy="345.239" r="9.26"/>
    <circle cx="767.867" cy="310.546" r="9.26"/>
  </g>
  <g id="frets" fill="none" stroke="#757575" stroke-width="1.455" stroke-linejoin="round">
    <path d="M71.33 28.998v103.293"/>
    <path d="M137.184 26.572v107.912"/>
    <path d="M203.787 24.353v112.35"/>
    <path d="M263.654 22.359v116.338"/>
    <path d="M321.276 20.44v120.177"/>
    <path d="M375.905 18.62v123.816"/>
    <path d="M427.541 16.9v127.256"/>
    <path d="M473.938 15.354v130.348"/>
    <path d="M521.084 13.784v133.488"/>
    <path d="M565.236 12.313v136.43"/>
    <path d="M606.395 10.942v139.172"/>
    <path d="M645.308 9.646V151.41"/>
    <path d="M683.474 8.374v144.308"/>
    <path d="M717.897 7.228v146.6"/>
    <path d="M750.824 6.13v148.795"/>
    <path d="M781.506 5.109v150.838"/>
    <path d="M812.188 4.087v152.882"/>
    <path d="M839.129 3.19v154.677"/>
    <path d="M864.572 2.342v156.372"/>
    <path d="M889.96 1.496c-.178-.71 0 158.064 0 158.064"/>
  </g>
  <g id="strings" fill="none" stroke="#cecece" stroke-linejoin="round" stroke-width="1.032">
    <g>
      <path d="m.19 111.546 912.843 21.23"/>
      <path d="m.19 120.542 912.843 23.24"/>
    </g>
    <g>
      <path d="m.19 96.994 912.843 9.875"/>
      <path d="m.19 87.998 912.843 6.77"/>
    </g>
    <g>
      <path d="m.19 63.392 912.843 -8.342"/>
      <path d="m.19 72.388 912.843 -6.467"/>
    </g>
    <g>
      <path d="m.19 40.505 912.843 -22.006"/>
      <path d="m.19 49.496 912.843 -19.7"/>
    </g>
  </g>
  <g id="fingerings" fill="#fff" fill-opacity="0">
    <g id="fingerings-G">
      <path d="m1.182 104.898 70.148 1.17v26.223L.91 129.945z"/>
      <path d="m71.33 106.068 65.854 1.097v27.32L71.33 132.29z"/>
      <path d="m137.184 107.165 66.603 1.11v28.428l-66.603-2.219z"/>
      <path d="m203.787 108.276 59.867.998v29.423l-59.867-1.994z"/>
      <path d="m263.654 109.274 57.622.96v30.383l-57.622-1.92z"/>
      <path d="m321.276 110.234 54.63.911v31.291l-54.63-1.82z"/>
      <path d="m375.905 111.145 51.636.86v32.151l-51.636-1.72v-31.29"/>
      <path d="m427.541 112.006 46.397.773v32.923l-46.397-1.546v-32.15"/>
      <path d="m473.938 112.78 47.146.785v33.707l-47.146-1.57z"/>
      <path d="m521.084 113.565 44.152.736v34.442l-44.152-1.47z"/>
      <path d="m565.236 114.301 41.159.687v35.126l-41.16-1.371v-34.442"/>
      <path d="m606.395 114.988 38.913.648v35.774l-38.913-1.296v-35.126"/>
      <path d="m645.308 115.636 38.166.637v36.409l-38.166-1.272v-35.774"/>
      <path d="m683.474 116.273 34.423.573v36.982l-34.423-1.146v-36.41"/>
      <path d="m717.897 116.846 32.927.55v37.53l-32.927-1.098v-36.982"/>
      <path d="m750.824 117.395 30.682.512v38.04l-30.682-1.022v-37.53"/>
      <path d="m781.506 117.907 30.682.511v38.551l-30.682-1.022v-38.04"/>
      <path d="m812.188 118.418 26.94.45v38.999l-26.94-.898z"/>
      <path d="m839.129 118.867 25.443.425v39.422l-25.443-.847v-39"/>
      <path d="m864.572 119.292 25.388.423v39.845l-25.388-.846z"/>
      <path d="m889.96 119.715 23.073.385v40.228l-23.073-.768z"/>
    </g>
    <g id="fingerings-D">
      <path d="M.91 80.528h70.42v25.54L.91 104.894V80.528"/>
      <path d="M71.33 80.528h65.854v26.637l-65.854-1.097z"/>
      <path d="M137.184 80.528h66.603v27.748l-66.603-1.11V80.527"/>
      <path d="M203.787 80.528h59.867v28.746l-59.867-.998z"/>
      <path d="M263.654 80.528h57.622v29.706l-57.622-.96z"/>
      <path d="M321.276 80.528h54.63v30.617l-54.63-.91z"/>
      <path d="M375.905 80.528h51.636v31.478l-51.636-.86z"/>
      <path d="M427.541 80.528h46.397v32.251l-46.397-.773z"/>
      <path d="M473.938 80.528h47.146v33.037l-47.146-.786z"/>
      <path d="M521.084 80.528h44.152v33.773l-44.152-.736z"/>
      <path d="M565.236 80.528h41.159v34.46l-41.16-.687z"/>
      <path d="M606.395 80.528h38.913v35.108l-38.913-.648z"/>
      <path d="M645.308 80.528h38.166v35.745l-38.166-.637z"/>
      <path d="M683.474 80.528h34.423v36.318l-34.423-.573z"/>
      <path d="M717.897 80.528h32.927v36.867l-32.927-.549z"/>
      <path d="M750.824 80.528h30.682v37.379l-30.682-.512V80.528"/>
      <path d="M781.506 80.528h30.682v37.89l-30.682-.511V80.528"/>
      <path d="M812.188 80.528h26.94v38.34l-26.94-.45v-37.89"/>
      <path d="M839.129 80.528h25.443v38.764l-25.443-.425z"/>
      <path d="M864.572 80.528h25.388v39.187l-25.388-.423V80.528"/>
      <path d="M889.893 80.528h23.14V120.1l-23.073-.385V80.528"/>
    </g>
    <g id="fingerings-A">
      <path d="m.91 55.861 70.42-1.071v25.738H.91Z"/>
      <path d="m71.33 54.79 65.854-1.002v26.74H71.33z"/>
      <path d="m137.184 53.788 66.603-1.013v27.753h-66.603v-26.74"/>
      <path d="m203.787 52.775 59.867-.911v28.664h-59.867V52.775"/>
      <path d="m263.654 51.864 57.622-.877v29.541h-57.622z"/>
      <path d="m321.276 50.987 54.63-.83-.004 30.371h-54.626z"/>
      <path d="m375.905 50.258 51.636-.887v31.157h-51.636Z"/>
      <path d="m427.541 49.37 46.397-.705v31.863h-46.397z"/>
      <path d="m473.938 48.665 47.146-.718v32.581h-47.146z"/>
      <path d="m521.084 47.947 44.152-.671v33.252h-44.152z"/>
      <path d="m565.236 47.276 41.159-.626v33.878h-41.16z"/>
      <path d="m606.395 46.65 38.913-.592v34.47h-38.913z"/>
      <path d="m645.308 46.058 38.166-.581v35.051h-38.166z"/>
      <path d="m683.474 45.477 34.423-.524v35.575h-34.423z"/>
      <path d="m717.897 44.953 32.927-.5v36.075h-32.927z"/>
      <path d="m750.824 44.452 30.682-.467v36.543h-30.682z"/>
      <path d="m781.506 43.985 30.682-.466v37.009h-30.682z"/>
      <path d="m812.188 43.519 26.94-.41v37.419h-26.94z"/>
      <path d="m839.129 43.109 25.443-.387v37.806H839.13z"/>
      <path d="m864.572 42.722 25.309-.385.079 38.191h-25.388Z"/>
      <path d="m889.88 42.345 23.153-.36v38.543H889.96z"/>
    </g>
    <g id="fingerings-E">
      <path d="m.91 31.111 70.42-2.113V54.79L.91 55.86z"/>
      <path d="m71.33 28.765 65.854-2.193v27.216L71.33 54.79z"/>
      <path d="m137.184 26.572 66.603-2.219v28.422l-66.603 1.013z"/>
      <path d="m203.787 24.353 59.867-1.994v29.505l-59.867.91z"/>
      <path d="m263.654 22.359 57.622-1.92v30.548l-57.622.877z"/>
      <path d="m321.276 20.44 54.63-1.82v31.536l-54.63.831z"/>
      <path d="m375.905 18.62 51.636-1.72v32.47l-51.636.888z"/>
      <path d="m427.541 16.9 46.397-1.546v33.31l-46.397.707z"/>
      <path d="m473.938 15.354 47.146-1.57v34.163l-47.146.718z"/>
      <path d="m521.084 13.784 44.152-1.471v34.963l-44.152.671z"/>
      <path d="m565.236 12.313 41.159-1.371V46.65l-41.16.626z"/>
      <path d="m606.395 10.942 38.913-1.296v36.412l-38.913.592z"/>
      <path d="m645.308 9.646 38.166-1.272v37.103l-38.166.58z"/>
      <path d="m683.474 8.374 34.423-1.146v37.725l-34.423.524z"/>
      <path d="m717.897 7.228 32.927-1.097v38.321l-32.927.501z"/>
      <path d="m750.824 6.13 30.682-1.021v38.876l-30.682.467z"/>
      <path d="m781.506 5.109 30.682-1.022v39.432l-30.682.466z"/>
      <path d="m812.188 4.087 26.94-.898v39.92l-26.94.41z"/>
      <path d="m839.129 3.19 25.443-.848v40.38l-25.443.387z"/>
      <path d="m864.572 2.342 25.388-.846-.08 40.85-25.308.376z"/>
      <path d="m889.96 1.501 23.073-.773v41.256l-23.152.362z"/>
    </g>
  </g>
</svg>
